<?xml version="1.0" standalone="no"?>
<!DOCTYPE svg PUBLIC "-//W3C//DTD SVG 20010904//EN"
 "http://www.w3.org/TR/2001/REC-SVG-20010904/DTD/svg10.dtd">
<svg version="1.0" xmlns="http://www.w3.org/2000/svg"
 width="110.00pt" height="1080.000000pt" viewBox="0 0 1080.000000 1080.000000"
 preserveAspectRatio="xMidYMid meet">

<g transform="translate(0.000000,1080.000000) scale(0.100000,-0.100000)"
fill="#000000" stroke="none">
<path d="M1263 6750 c-125 -19 -259 -116 -319 -231 -68 -129 -64 -40 -64
-1429 0 -1080 2 -1264 15 -1313 45 -175 172 -307 330 -346 74 -18 187 -15 800
24 634 40 705 48 835 93 323 113 579 356 716 679 21 48 41 92 45 96 3 5 11
-26 18 -67 26 -174 109 -344 226 -461 131 -131 284 -195 464 -195 123 0 676
37 738 49 206 40 409 215 499 431 l23 55 1 -131 c0 -185 26 -261 103 -301 35
-18 138 -19 315 -4 122 11 154 27 197 96 l30 48 3 599 3 598 202 0 c224 0 241
-4 269 -60 16 -32 18 -80 18 -551 0 -563 1 -572 57 -631 40 -42 75 -47 245
-36 171 11 206 22 239 74 11 19 22 34 24 34 1 0 21 -18 43 -40 l40 -40 83 0
c46 0 126 5 176 9 106 11 139 28 169 88 18 35 19 76 24 593 l5 555 170 3 c106
1 179 -2 196 -8 53 -23 54 -25 59 -570 3 -353 9 -513 17 -531 6 -14 26 -38 45
-54 l33 -28 142 6 c175 7 201 17 238 90 22 46 25 63 25 166 l1 116 41 -80 c72
-137 174 -222 296 -245 59 -11 480 13 510 29 28 15 58 54 71 90 7 21 11 109
11 226 l0 192 53 35 c94 63 176 195 219 351 25 94 36 337 19 443 -32 193 -115
347 -231 426 -86 59 -139 67 -430 70 l-255 3 -57 -28 c-126 -62 -231 -227
-273 -427 l-11 -55 -17 56 c-9 31 -38 99 -64 150 -84 169 -243 302 -400 334
-40 8 -206 19 -398 26 -330 12 -330 12 -372 -10 -67 -33 -107 -75 -140 -143
-42 -86 -53 -147 -53 -296 l-1 -127 -27 80 c-78 222 -214 388 -391 476 -113
56 -137 59 -576 76 -469 19 -462 19 -554 -63 -78 -70 -120 -167 -137 -317 l-7
-59 -26 64 c-62 145 -192 298 -302 353 -122 63 -144 66 -569 83 -372 14 -400
14 -480 -2 -202 -41 -362 -165 -474 -367 -39 -70 -33 -77 -61 66 -92 469 -419
861 -824 989 -137 43 -237 54 -836 91 -314 19 -599 37 -635 39 -36 2 -88 1
-117 -4z m719 -290 c310 -16 590 -34 623 -39 33 -6 80 -13 105 -16 63 -8 132
-33 228 -82 283 -145 465 -398 544 -758 17 -75 21 -142 25 -396 6 -341 -3
-485 -42 -631 -47 -182 -119 -324 -232 -458 -76 -91 -93 -106 -211 -188 -72
-49 -244 -122 -289 -122 -9 0 -30 -5 -47 -10 -28 -9 -1111 -68 -1312 -71 -72
-1 -88 2 -134 27 -40 22 -58 40 -78 79 l-27 50 0 1240 0 1240 24 48 c37 77
105 112 223 116 20 0 290 -12 600 -29z m2798 -760 c240 -8 295 -12 350 -29
151 -47 274 -205 320 -410 18 -83 20 -126 20 -483 0 -353 -2 -401 -19 -473
-42 -173 -118 -285 -256 -372 -77 -49 -148 -60 -523 -79 -395 -20 -455 -16
-559 37 -128 65 -232 214 -271 389 -15 64 -17 137 -16 500 0 401 1 429 21 500
48 170 141 303 254 365 125 68 173 72 679 55z m1758 -49 l192 -8 78 -38 c57
-29 96 -58 152 -115 89 -90 138 -180 177 -327 l27 -98 4 -542 4 -543 -44 0
c-24 0 -87 -3 -140 -7 l-98 -6 0 473 c0 504 -4 566 -47 657 -27 57 -87 118
-137 138 -21 8 -124 14 -328 19 l-298 6 0 -665 0 -664 -32 -5 c-18 -3 -88 -7
-156 -10 l-122 -6 2 823 3 823 28 43 c46 69 60 72 317 65 124 -3 312 -9 418
-13z m1740 -64 c82 -28 184 -117 239 -207 46 -76 58 -102 86 -190 19 -61 21
-94 24 -596 l4 -531 -32 -7 c-17 -3 -71 -6 -120 -6 l-88 0 -3 488 c-4 543 -3
538 -75 621 -67 79 -78 81 -368 81 l-255 0 0 -614 0 -613 -61 -7 c-34 -3 -93
-6 -130 -6 l-69 0 0 750 c0 555 3 756 12 777 6 15 26 43 42 62 l31 33 350 -7
c323 -6 355 -8 413 -28z m1388 -41 c28 -13 66 -39 85 -59 47 -48 97 -153 116
-241 19 -88 12 -285 -12 -366 -41 -135 -131 -246 -217 -268 -24 -6 -139 -13
-255 -15 l-213 -4 0 168 0 169 216 0 c128 0 223 4 235 10 69 37 75 233 9 281
-22 16 -57 19 -262 25 l-236 7 -26 -28 c-14 -15 -30 -44 -36 -64 -14 -52 -13
-613 2 -663 7 -22 24 -48 40 -59 27 -20 37 -20 248 -13 l220 7 0 -161 c0 -144
-2 -161 -17 -166 -10 -2 -101 -8 -203 -12 -102 -3 -196 -8 -210 -9 -44 -5
-130 36 -180 86 -55 55 -103 160 -119 260 -17 103 -14 699 4 802 30 172 124
311 228 338 17 5 145 6 282 3 233 -5 254 -7 301 -28z"/>
<path d="M1580 5091 c0 -851 1 -901 18 -901 9 0 244 7 522 15 448 14 513 18
580 36 173 48 296 161 365 334 50 126 57 204 53 554 -5 353 -8 376 -78 516
-46 95 -84 143 -154 194 -140 103 -208 116 -686 131 -195 6 -415 13 -487 17
l-133 6 0 -902z m860 609 c107 -5 211 -14 230 -19 93 -28 177 -115 212 -221
17 -51 23 -637 8 -710 -27 -124 -97 -212 -199 -251 -49 -19 -87 -23 -291 -30
-129 -4 -313 -8 -407 -8 l-173 -1 0 630 0 629 213 -5 c116 -3 300 -9 407 -14z"/>
<path d="M4272 5253 c-19 -9 -42 -33 -55 -57 -21 -40 -22 -53 -25 -389 -3
-383 1 -433 47 -488 l29 -34 163 1 c90 0 267 4 392 9 220 7 229 8 256 31 64
53 65 62 65 459 1 330 -1 363 -18 398 -10 20 -33 47 -50 60 -31 22 -36 22
-401 24 -327 3 -374 1 -403 -14z m688 -467 l0 -254 -112 -6 c-62 -3 -191 -7
-286 -9 l-172 -2 0 263 0 262 285 0 285 0 0 -254z"/>
</g>
</svg>
